<?xml version="1.0" standalone="no"?><svg xmlns="http://www.w3.org/2000/svg" viewBox="0 0 1440 320"><path fill="#186A3B" fill-opacity="1" d="M0,224L6.2,208C12.3,192,25,160,37,144C49.2,128,62,128,74,149.3C86.2,171,98,213,111,234.7C123.1,256,135,256,148,224C160,192,172,128,185,138.7C196.9,149,209,235,222,240C233.8,245,246,171,258,165.3C270.8,160,283,224,295,218.7C307.7,213,320,139,332,128C344.6,117,357,171,369,213.3C381.5,256,394,288,406,282.7C418.5,277,431,235,443,181.3C455.4,128,468,64,480,32C492.3,0,505,0,517,10.7C529.2,21,542,43,554,48C566.2,53,578,43,591,58.7C603.1,75,615,117,628,133.3C640,149,652,139,665,144C676.9,149,689,171,702,186.7C713.8,203,726,213,738,192C750.8,171,763,117,775,106.7C787.7,96,800,128,812,138.7C824.6,149,837,139,849,133.3C861.5,128,874,128,886,154.7C898.5,181,911,235,923,245.3C935.4,256,948,224,960,176C972.3,128,985,64,997,80C1009.2,96,1022,192,1034,208C1046.2,224,1058,160,1071,144C1083.1,128,1095,160,1108,197.3C1120,235,1132,277,1145,288C1156.9,299,1169,277,1182,245.3C1193.8,213,1206,171,1218,133.3C1230.8,96,1243,64,1255,85.3C1267.7,107,1280,181,1292,197.3C1304.6,213,1317,171,1329,176C1341.5,181,1354,235,1366,213.3C1378.5,192,1391,96,1403,64C1415.4,32,1428,64,1434,80L1440,96L1440,320L1433.8,320C1427.7,320,1415,320,1403,320C1390.8,320,1378,320,1366,320C1353.8,320,1342,320,1329,320C1316.9,320,1305,320,1292,320C1280,320,1268,320,1255,320C1243.1,320,1231,320,1218,320C1206.2,320,1194,320,1182,320C1169.2,320,1157,320,1145,320C1132.3,320,1120,320,1108,320C1095.4,320,1083,320,1071,320C1058.5,320,1046,320,1034,320C1021.5,320,1009,320,997,320C984.6,320,972,320,960,320C947.7,320,935,320,923,320C910.8,320,898,320,886,320C873.8,320,862,320,849,320C836.9,320,825,320,812,320C800,320,788,320,775,320C763.1,320,751,320,738,320C726.2,320,714,320,702,320C689.2,320,677,320,665,320C652.3,320,640,320,628,320C615.4,320,603,320,591,320C578.5,320,566,320,554,320C541.5,320,529,320,517,320C504.6,320,492,320,480,320C467.7,320,455,320,443,320C430.8,320,418,320,406,320C393.8,320,382,320,369,320C356.9,320,345,320,332,320C320,320,308,320,295,320C283.1,320,271,320,258,320C246.2,320,234,320,222,320C209.2,320,197,320,185,320C172.3,320,160,320,148,320C135.4,320,123,320,111,320C98.5,320,86,320,74,320C61.5,320,49,320,37,320C24.6,320,12,320,6,320L0,320Z"></path></svg>