<?xml version="1.0" standalone="no"?><svg xmlns="http://www.w3.org/2000/svg" viewBox="0 0 1440 320"><path fill="#154360" fill-opacity="1" d="M0,160L9.6,181.3C19.2,203,38,245,58,272C76.8,299,96,309,115,266.7C134.4,224,154,128,173,106.7C192,85,211,139,230,138.7C249.6,139,269,85,288,69.3C307.2,53,326,75,346,80C364.8,85,384,75,403,69.3C422.4,64,442,64,461,58.7C480,53,499,43,518,74.7C537.6,107,557,181,576,181.3C595.2,181,614,107,634,106.7C652.8,107,672,181,691,213.3C710.4,245,730,235,749,192C768,149,787,75,806,69.3C825.6,64,845,128,864,181.3C883.2,235,902,277,922,266.7C940.8,256,960,192,979,144C998.4,96,1018,64,1037,48C1056,32,1075,32,1094,64C1113.6,96,1133,160,1152,192C1171.2,224,1190,224,1210,224C1228.8,224,1248,224,1267,202.7C1286.4,181,1306,139,1325,149.3C1344,160,1363,224,1382,218.7C1401.6,213,1421,139,1430,101.3L1440,64L1440,320L1430.4,320C1420.8,320,1402,320,1382,320C1363.2,320,1344,320,1325,320C1305.6,320,1286,320,1267,320C1248,320,1229,320,1210,320C1190.4,320,1171,320,1152,320C1132.8,320,1114,320,1094,320C1075.2,320,1056,320,1037,320C1017.6,320,998,320,979,320C960,320,941,320,922,320C902.4,320,883,320,864,320C844.8,320,826,320,806,320C787.2,320,768,320,749,320C729.6,320,710,320,691,320C672,320,653,320,634,320C614.4,320,595,320,576,320C556.8,320,538,320,518,320C499.2,320,480,320,461,320C441.6,320,422,320,403,320C384,320,365,320,346,320C326.4,320,307,320,288,320C268.8,320,250,320,230,320C211.2,320,192,320,173,320C153.6,320,134,320,115,320C96,320,77,320,58,320C38.4,320,19,320,10,320L0,320Z"></path></svg>