<?xml version="1.0" standalone="no"?><svg xmlns="http://www.w3.org/2000/svg" viewBox="0 0 1440 320"><path fill="#FFD95A" fill-opacity="1" d="M0,288L13.3,288C26.7,288,53,288,80,266.7C106.7,245,133,203,160,208C186.7,213,213,267,240,245.3C266.7,224,293,128,320,128C346.7,128,373,224,400,234.7C426.7,245,453,171,480,165.3C506.7,160,533,224,560,250.7C586.7,277,613,267,640,266.7C666.7,267,693,277,720,250.7C746.7,224,773,160,800,144C826.7,128,853,160,880,165.3C906.7,171,933,149,960,160C986.7,171,1013,213,1040,245.3C1066.7,277,1093,299,1120,266.7C1146.7,235,1173,149,1200,138.7C1226.7,128,1253,192,1280,197.3C1306.7,203,1333,149,1360,112C1386.7,75,1413,53,1427,42.7L1440,32L1440,320L1426.7,320C1413.3,320,1387,320,1360,320C1333.3,320,1307,320,1280,320C1253.3,320,1227,320,1200,320C1173.3,320,1147,320,1120,320C1093.3,320,1067,320,1040,320C1013.3,320,987,320,960,320C933.3,320,907,320,880,320C853.3,320,827,320,800,320C773.3,320,747,320,720,320C693.3,320,667,320,640,320C613.3,320,587,320,560,320C533.3,320,507,320,480,320C453.3,320,427,320,400,320C373.3,320,347,320,320,320C293.3,320,267,320,240,320C213.3,320,187,320,160,320C133.3,320,107,320,80,320C53.3,320,27,320,13,320L0,320Z"></path></svg>